<?xml version="1.0" standalone="no"?>
<!DOCTYPE svg PUBLIC "-//W3C//DTD SVG 20010904//EN"
 "http://www.w3.org/TR/2001/REC-SVG-20010904/DTD/svg10.dtd">
<svg version="1.0" xmlns="http://www.w3.org/2000/svg"
 width="700.000000pt" height="700.000000pt" viewBox="0 0 700.000000 700.000000"
 preserveAspectRatio="xMidYMid meet">
<metadata>
Created by potrace 1.14, written by Peter Selinger 2001-2017
</metadata>
<g transform="translate(0.000000,700.000000) scale(0.100000,-0.100000)"
fill="#000000" stroke="none">
<path d="M3170 6635 c-497 -55 -980 -226 -1390 -493 -226 -146 -503 -390 -675
-592 -390 -459 -635 -998 -725 -1595 -28 -178 -38 -567 -21 -741 93 -934 566
-1753 1321 -2289 400 -283 865 -469 1365 -545 181 -28 559 -38 743 -20 476 45
920 190 1330 434 524 312 959 788 1223 1340 145 303 233 595 286 951 27 185
25 670 -4 855 -91 580 -296 1058 -647 1510 -104 135 -371 404 -505 510 -103
81 -263 192 -352 244 l-47 27 -252 -438 c-140 -241 -381 -647 -537 -902 -155
-255 -283 -465 -283 -466 0 -2 28 -21 63 -42 328 -207 516 -593 477 -977 -27
-265 -132 -480 -323 -662 -202 -192 -439 -286 -717 -286 -280 0 -516 94 -717
286 -540 513 -391 1396 289 1710 101 47 202 74 332 88 l109 12 -6 531 c-4 291
-7 763 -7 1048 l0 517 -107 -1 c-60 -1 -160 -7 -223 -14z"/>
</g>
</svg>
